<svg width="21" height="21" viewBox="0 0 21 21" fill="none" xmlns="http://www.w3.org/2000/svg">
<path d="M2.83289 2H7.32289L8.76989 5.618L6.44489 7.168C6.30797 7.25935 6.19572 7.38308 6.11809 7.52822C6.04047 7.67335 5.99987 7.83541 5.99989 8C6.00289 8.094 5.99989 8.001 5.99989 8.001V8.022C6.00048 8.06672 6.00248 8.11141 6.00589 8.156C6.01189 8.238 6.02189 8.349 6.04089 8.486C6.07989 8.756 6.15489 9.128 6.30089 9.566C6.59489 10.446 7.17089 11.585 8.29289 12.707C9.41489 13.829 10.5539 14.405 11.4329 14.699C11.8719 14.845 12.2429 14.919 12.5149 14.959C12.6684 14.9804 12.823 14.9938 12.9779 14.999L12.9909 15H12.9989C12.9989 15 13.1109 14.994 12.9999 15C13.1856 14.9999 13.3675 14.9481 13.5254 14.8504C13.6833 14.7528 13.8109 14.6131 13.8939 14.447L14.5639 13.107L18.9999 13.847V18.167C16.8889 18.472 11.1869 18.773 6.70689 14.293C2.22689 9.813 2.52689 4.11 2.83289 2ZM8.07289 8.486L9.87989 7.282C10.2616 7.02737 10.5442 6.64922 10.6802 6.21096C10.8162 5.77271 10.7974 5.30102 10.6269 4.875L9.17989 1.257C9.0314 0.885905 8.77513 0.567815 8.44413 0.343762C8.11313 0.119709 7.72259 -2.67934e-05 7.32289 4.49722e-09H2.78089C1.87189 4.49722e-09 1.01689 0.631 0.86789 1.617C0.52789 3.859 0.0668902 10.481 5.29289 15.707C10.5189 20.933 17.1409 20.471 19.3829 20.132C20.3689 19.982 20.9999 19.128 20.9999 18.219V13.847C20.9999 13.3736 20.8321 12.9155 20.5261 12.5542C20.2201 12.1929 19.7959 11.9519 19.3289 11.874L14.8929 11.135C14.471 11.0646 14.0376 11.1313 13.6564 11.3253C13.2752 11.5193 12.9662 11.8304 12.7749 12.213L12.4289 12.906C12.3065 12.8759 12.1854 12.8408 12.0659 12.801C11.4459 12.595 10.5849 12.171 9.70689 11.293C8.82889 10.415 8.40489 9.554 8.19889 8.933C8.1497 8.78621 8.10798 8.63702 8.07389 8.486H8.07289Z" fill="white"/>
</svg>
