<svg width="24" height="25" viewBox="0 0 24 25" fill="none" xmlns="http://www.w3.org/2000/svg">
<path d="M0 1.30002C0 1.08784 0.0842881 0.884355 0.234322 0.734322C0.384356 0.584288 0.587845 0.5 0.800025 0.5H3.2001C3.37855 0.500049 3.55187 0.559763 3.69248 0.669645C3.8331 0.779527 3.93294 0.933268 3.97612 1.10642L4.62414 3.7001H23.2007C23.3182 3.70021 23.4342 3.72618 23.5405 3.77618C23.6468 3.82618 23.7408 3.89898 23.8158 3.98939C23.8908 4.07981 23.9449 4.18563 23.9744 4.29935C24.0039 4.41306 24.008 4.53186 23.9863 4.64733L21.5863 17.4477C21.5519 17.6311 21.4547 17.7966 21.3112 17.9158C21.1678 18.035 20.9872 18.1004 20.8006 18.1005H6.4002C6.21368 18.1004 6.03309 18.035 5.88964 17.9158C5.74619 17.7966 5.64889 17.6311 5.61457 17.4477L3.2161 4.67133L2.57608 2.10005H0.800025C0.587845 2.10005 0.384356 2.01576 0.234322 1.86573C0.0842881 1.71569 0 1.5122 0 1.30002ZM4.96335 5.30015L7.06422 16.5005H20.1366L22.2375 5.30015H4.96335ZM8.00025 18.1005C7.15153 18.1005 6.33757 18.4377 5.73744 19.0378C5.1373 19.638 4.80015 20.4519 4.80015 21.3006C4.80015 22.1494 5.1373 22.9633 5.73744 23.5635C6.33757 24.1636 7.15153 24.5007 8.00025 24.5007C8.84897 24.5007 9.66292 24.1636 10.2631 23.5635C10.8632 22.9633 11.2003 22.1494 11.2003 21.3006C11.2003 20.4519 10.8632 19.638 10.2631 19.0378C9.66292 18.4377 8.84897 18.1005 8.00025 18.1005ZM19.2006 18.1005C18.3519 18.1005 17.5379 18.4377 16.9378 19.0378C16.3376 19.638 16.0005 20.4519 16.0005 21.3006C16.0005 22.1494 16.3376 22.9633 16.9378 23.5635C17.5379 24.1636 18.3519 24.5007 19.2006 24.5007C20.0493 24.5007 20.8633 24.1636 21.4634 23.5635C22.0635 22.9633 22.4007 22.1494 22.4007 21.3006C22.4007 20.4519 22.0635 19.638 21.4634 19.0378C20.8633 18.4377 20.0493 18.1005 19.2006 18.1005ZM8.00025 19.7006C8.42461 19.7006 8.83159 19.8692 9.13165 20.1692C9.43172 20.4693 9.6003 20.8763 9.6003 21.3006C9.6003 21.725 9.43172 22.132 9.13165 22.432C8.83159 22.7321 8.42461 22.9007 8.00025 22.9007C7.57589 22.9007 7.16891 22.7321 6.86884 22.432C6.56877 22.132 6.4002 21.725 6.4002 21.3006C6.4002 20.8763 6.56877 20.4693 6.86884 20.1692C7.16891 19.8692 7.57589 19.7006 8.00025 19.7006ZM19.2006 19.7006C19.625 19.7006 20.0319 19.8692 20.332 20.1692C20.6321 20.4693 20.8006 20.8763 20.8006 21.3006C20.8006 21.725 20.6321 22.132 20.332 22.432C20.0319 22.7321 19.625 22.9007 19.2006 22.9007C18.7762 22.9007 18.3693 22.7321 18.0692 22.432C17.7691 22.132 17.6005 21.725 17.6005 21.3006C17.6005 20.8763 17.7691 20.4693 18.0692 20.1692C18.3693 19.8692 18.7762 19.7006 19.2006 19.7006V19.7006Z" fill="white"/>
</svg>
