<svg width="340" height="340" viewBox="0 0 340 340" fill="none" xmlns="http://www.w3.org/2000/svg">
<rect x="5" y="5" width="330" height="330" rx="15" stroke="white" stroke-width="10"/>
<path fill-rule="evenodd" clip-rule="evenodd" d="M221.613 44.6746C215.502 46.6101 207.186 50.2338 203.134 52.7263C196.316 56.9156 195.111 56.8758 187.084 52.2005C175.792 45.6239 163.204 42.5657 161.384 45.9536C160.594 47.4286 163.308 50.2366 167.417 52.1948C167.662 52.312 167.903 52.4263 168.14 52.5385L168.141 52.5391C170.528 53.6714 172.445 54.5809 173.982 55.9249C180.253 61.4088 180.198 74.1274 179.919 138.741L179.899 143.515L179.637 205.053L172.274 210.418L164.91 215.782L183.138 226.164L201.363 236.543L219.512 226.53C236.461 217.183 237.345 216.253 232.871 212.485C230.234 210.268 227.179 208.452 226.08 208.452C224.981 208.452 224.083 191.203 224.083 170.123V131.797L238.826 123.228C256.318 113.065 258.467 112.863 266.961 120.554L273.467 126.442L273.408 168.159C273.341 215.043 271.403 228.722 263.44 238.479C257.741 245.462 235.918 256.094 210.872 264.092C200.642 267.36 197.195 269.589 199.062 271.737C202.423 275.605 221.522 270.868 254.545 257.976C282.075 247.227 296.08 238.544 306.801 225.578L314.209 216.62L314.987 168.699C315.915 111.49 314.562 106.513 295.312 96.2449L282.907 89.6312L255.348 104.962C240.189 113.394 226.952 120.306 225.935 120.32C224.917 120.335 224.083 107.73 224.083 92.3114C224.083 65.9081 224.456 63.8475 230.505 56.8872C234.039 52.8201 239.039 48.7218 241.617 47.7811C244.194 46.8375 246.306 44.8764 246.306 43.4184C246.306 39.8259 235.108 40.3944 221.613 44.6746ZM59.3661 69.1396C40.6766 74.1502 24.7971 100.329 30.9776 115.941C35.1308 126.431 44.8249 132.823 50.9041 129.077C62.7045 121.807 57.4451 101.392 44.7188 105.07C37.0247 107.292 36.8 99.6185 44.3805 93.5079C51.6745 87.6247 58.4402 87.9231 80.6582 95.0966C93.8685 99.3655 103.103 100.659 112.437 99.5502L125.595 97.9871L114.763 107.505C101.55 119.118 96.7328 127.247 93.029 144.169C90.5598 155.463 89.6042 156.791 85.6905 154.38C78.1816 149.753 62.8403 151.285 53.9092 157.552C47.6991 161.912 46.3361 164.089 48.751 165.809C50.556 167.09 54.2524 167.196 56.9661 166.039C67.9022 161.383 82.8682 172.385 87.0066 188.128C88.4782 193.721 88.0239 194.548 84.1991 193.235C70.7838 188.631 66.0256 188.494 57.7612 192.468C46.3361 197.964 46.2176 202.768 57.5093 202.768C77.0186 202.768 95.155 222.438 97.4736 246.113C98.3724 255.304 97.5082 259.894 93.9179 264.999C88.7474 272.348 85.0584 272.814 58.4106 269.472C39.5433 267.105 32.0591 270.893 25.686 286.039C21.0661 297.018 24.2168 302.708 31.0023 295.637C36.7234 289.677 42.2866 289.645 57.1661 295.48C64.3688 298.305 73.137 299.539 79.8261 298.672C100.965 295.929 134.554 265.993 145.571 240.082C150.641 228.153 151.285 221.619 152.47 170.083C153.888 108.438 154.384 106.008 170.271 82.7391C179.881 68.6621 177.382 65.2715 162.923 72.7718C149.065 79.9567 131.961 80.2949 105.289 73.9115C79.9594 67.8493 68.5862 66.6669 59.3661 69.1396ZM157.476 86.89C157.476 86.89 138.687 123.911 135.004 149.411C133.189 161.974 134.634 172.553 136.027 182.755C137.835 196 139.557 208.61 133.95 224.105C126.052 245.933 91.6336 281.459 91.6336 281.459C91.6336 281.459 109.058 254.323 113.23 241.501C116.427 231.674 118.463 224.471 119.638 214.581C121.242 201.083 119.042 189.732 116.925 178.81C114.156 164.527 111.529 150.978 117.743 134.321C125.855 112.572 157.476 86.89 157.476 86.89Z" fill="white"/>
</svg>
