<svg width="32" height="32" viewBox="0 0 32 32" fill="none" xmlns="http://www.w3.org/2000/svg">
<rect width="32" height="32" rx="2" fill="#492020"/>
<path fill-rule="evenodd" clip-rule="evenodd" d="M20.5693 5.32103C20.0273 5.49267 19.2898 5.81404 18.9305 6.03508C18.3259 6.40661 18.219 6.40308 17.5071 5.98846C16.5057 5.40521 15.3893 5.13401 15.2279 5.43445C15.1579 5.56526 15.3985 5.81429 15.7629 5.98795L15.8271 6.01848C16.0388 6.1189 16.2088 6.19955 16.3451 6.31875C16.9013 6.80508 16.8964 7.93302 16.8717 13.6633L16.8699 14.0866L16.8466 19.544L16.1936 20.0198L15.5406 20.4955L17.1572 21.4162L18.7734 22.3367L20.3829 21.4487C21.886 20.6197 21.9644 20.5373 21.5676 20.2031C21.3338 20.0065 21.0629 19.8454 20.9654 19.8454C20.868 19.8454 20.7883 18.3157 20.7883 16.4463V13.0474L22.0958 12.2874C23.6471 11.3861 23.8376 11.3682 24.5909 12.0503L25.1679 12.5725L25.1626 16.2721C25.1567 20.4299 24.9848 21.643 24.2786 22.5083C23.7732 23.1276 21.8378 24.0705 19.6167 24.7798C18.7095 25.0697 18.4038 25.2673 18.5694 25.4578C18.8674 25.8009 20.5612 25.3807 23.4898 24.2374C25.9312 23.2841 27.1733 22.5141 28.1241 21.3643L28.781 20.5698L28.85 16.32C28.9324 11.2465 28.8124 10.8051 27.1052 9.89448L26.005 9.30796L23.561 10.6675C22.2167 11.4154 21.0427 12.0283 20.9525 12.0296C20.8623 12.0309 20.7883 10.913 20.7883 9.54564C20.7883 7.2041 20.8213 7.02136 21.3578 6.40409C21.6712 6.0434 22.1146 5.67995 22.3433 5.59652C22.5719 5.51284 22.7591 5.33892 22.7591 5.20962C22.7591 4.89103 21.766 4.94144 20.5693 5.32103ZM6.18058 7.49068C4.52312 7.93504 3.11486 10.2567 3.66297 11.6412C4.03129 12.5715 4.891 13.1384 5.43013 12.8062C6.47664 12.1614 6.01021 10.3509 4.88159 10.6771C4.19925 10.8742 4.17932 10.1937 4.85159 9.65176C5.49845 9.13001 6.09846 9.15648 8.06884 9.79265C9.24038 10.1712 10.0594 10.2859 10.8871 10.1876L12.0541 10.049L11.0934 10.8931C9.92163 11.923 9.4944 12.6438 9.16593 14.1446C8.94695 15.1462 8.8622 15.2639 8.51512 15.0502C7.8492 14.6398 6.48868 14.7757 5.69663 15.3315C5.1459 15.7181 5.02502 15.9112 5.23918 16.0637C5.39926 16.1773 5.72707 16.1867 5.96773 16.0841C6.93759 15.6712 8.26483 16.6469 8.63184 18.043C8.76235 18.539 8.72206 18.6124 8.38286 18.4959C7.19314 18.0876 6.77116 18.0755 6.03824 18.4279C5.02502 18.9154 5.01451 19.3413 6.0159 19.3413C7.74606 19.3413 9.35447 21.0858 9.56009 23.1853C9.6398 24.0005 9.56316 24.4075 9.24476 24.8602C8.78622 25.512 8.45906 25.5533 6.09583 25.2569C4.42261 25.047 3.75888 25.383 3.19369 26.7261C2.78398 27.6998 3.0634 28.2044 3.66516 27.5773C4.17253 27.0488 4.66589 27.046 5.98547 27.5634C6.62423 27.814 7.40183 27.9234 7.99504 27.8465C9.86973 27.6033 12.8485 24.9484 13.8256 22.6505C14.2752 21.5926 14.3323 21.0132 14.4374 16.4427C14.5631 10.9758 14.6071 10.7603 16.0161 8.69674C16.8683 7.44833 16.6467 7.14764 15.3644 7.8128C14.1355 8.44998 12.6186 8.47997 10.2532 7.91387C8.00687 7.37625 6.99825 7.27139 6.18058 7.49068ZM14.8814 9.06472C14.8814 9.06472 13.2151 12.3479 12.8885 14.6093C12.7276 15.7235 12.8557 16.6616 12.9792 17.5664C13.1396 18.741 13.2923 19.8593 12.7951 21.2335C12.0946 23.1693 9.04228 26.3198 9.04228 26.3198C9.04228 26.3198 10.5875 23.9134 10.9575 22.7762C11.2411 21.9047 11.4216 21.2659 11.5258 20.3889C11.6681 19.1918 11.4729 18.1851 11.2852 17.2166C11.0396 15.9498 10.8067 14.7483 11.3577 13.2711C12.0772 11.3423 14.8814 9.06472 14.8814 9.06472Z" fill="white"/>
</svg>
