<svg width="26" height="27" viewBox="0 0 26 27" fill="none" xmlns="http://www.w3.org/2000/svg">
<rect width="26" height="27" rx="5" fill="#665CA7"/>
<path d="M12.3981 2.00349C10.4721 2.02674 6.33137 2.34324 4.01537 4.46799C2.29262 6.17499 1.69112 8.69874 1.62062 11.8195C1.56212 14.929 1.49162 20.7685 7.12037 22.3585V24.7802C7.12037 24.7802 7.08512 25.7492 7.72562 25.948C8.51462 26.1977 8.96387 25.4522 9.71387 24.6512L11.1126 23.0695C14.9639 23.3897 17.9136 22.6517 18.2534 22.5422C19.0349 22.2925 23.4366 21.73 24.1559 15.8897C24.8939 9.85824 23.7966 6.05799 21.8159 4.33899H21.8039C21.2061 3.78849 18.8039 2.03799 13.4369 2.01849C13.4369 2.01849 13.0386 1.99149 12.3981 2.00274V2.00349ZM12.4641 3.69924C13.0109 3.69549 13.3431 3.71874 13.3431 3.71874C17.8859 3.73074 20.0541 5.09799 20.5656 5.55849C22.2336 6.98799 23.0931 10.414 22.4639 15.4495C21.8661 20.332 18.2961 20.641 17.6354 20.8517C17.3541 20.9417 14.7561 21.5822 11.4831 21.3715C11.4831 21.3715 9.04562 24.313 8.28362 25.0705C8.16287 25.2032 8.02187 25.2422 7.93187 25.2227C7.80287 25.1912 7.76387 25.0315 7.77137 24.8125L7.79462 20.7932C3.02087 19.4732 3.30212 14.4925 3.35312 11.8907C3.41162 9.28899 3.89987 7.16049 5.35337 5.71899C7.31012 3.94974 10.8261 3.71124 12.4626 3.69924H12.4641ZM12.8241 6.30024C12.7848 6.29985 12.7458 6.30723 12.7094 6.32197C12.673 6.33671 12.6399 6.35851 12.6119 6.38612C12.5839 6.41373 12.5617 6.4466 12.5465 6.48283C12.5313 6.51907 12.5235 6.55795 12.5234 6.59724C12.5234 6.76524 12.6599 6.89799 12.8241 6.89799C13.5677 6.88385 14.3068 7.01707 14.9987 7.28996C15.6906 7.56286 16.3216 7.97003 16.8554 8.48799C17.9451 9.54624 18.4761 10.9682 18.4964 12.8275C18.4964 12.9917 18.6291 13.1282 18.7971 13.1282V13.1162C18.8763 13.1164 18.9523 13.0853 19.0087 13.0297C19.065 12.9741 19.0971 12.8984 19.0979 12.8192C19.1343 11.9441 18.9924 11.0707 18.6807 10.2521C18.3691 9.43353 17.8943 8.68686 17.2851 8.05749C16.0979 6.89724 14.5934 6.29949 12.8241 6.29949V6.30024ZM8.87087 6.98799C8.65858 6.95697 8.44207 6.99959 8.25737 7.10874H8.24162C7.81281 7.3601 7.42653 7.67778 7.09712 8.04999C6.82337 8.36649 6.67487 8.68674 6.63587 8.99499C6.61262 9.17874 6.62837 9.36249 6.68312 9.53799L6.70262 9.54999C7.01087 10.456 7.41362 11.3275 7.90562 12.148C8.53938 13.3007 9.31933 14.3668 10.2261 15.3197L10.2531 15.3587L10.2959 15.3902L10.3229 15.4217L10.3544 15.4487C11.3108 16.3582 12.3794 17.1418 13.5344 17.7805C14.8544 18.499 15.6554 18.8387 16.1361 18.9797V18.9872C16.2771 19.03 16.4054 19.0495 16.5344 19.0495C16.9441 19.0195 17.332 18.8531 17.6361 18.577C18.0066 18.2475 18.3208 17.8596 18.5661 17.4287V17.4212C18.7964 16.9877 18.7184 16.5775 18.3861 16.3C17.7207 15.7184 17.0012 15.2018 16.2374 14.7572C15.7259 14.4797 15.2061 14.6477 14.9954 14.929L14.5461 15.4952C14.3159 15.7765 13.8974 15.7375 13.8974 15.7375L13.8854 15.745C10.7646 14.9477 9.93212 11.788 9.93212 11.788C9.93212 11.788 9.89312 11.3582 10.1819 11.1392L10.7444 10.6862C11.0136 10.4672 11.2011 9.94824 10.9124 9.43599C10.4709 8.67111 9.95544 7.95141 9.37337 7.28724C9.24611 7.13066 9.06759 7.02413 8.86937 6.98649L8.87087 6.98799ZM13.3431 7.87899C12.9449 7.87899 12.9449 8.48049 13.3469 8.48049C13.8421 8.48853 14.3309 8.59407 14.7853 8.79109C15.2397 8.98812 15.6508 9.27275 15.9951 9.62874C16.3092 9.97525 16.5506 10.3813 16.7049 10.8228C16.8593 11.2643 16.9234 11.7323 16.8936 12.199C16.895 12.278 16.9272 12.3533 16.9834 12.4088C17.0397 12.4643 17.1154 12.4956 17.1944 12.496L17.2064 12.5117C17.2859 12.5112 17.3621 12.4793 17.4184 12.423C17.4747 12.3667 17.5065 12.2906 17.5071 12.211C17.5341 11.0192 17.1636 10.0195 16.4369 9.21849C15.7064 8.41749 14.6871 7.96824 13.3859 7.87899H13.3431V7.87899ZM13.8359 9.49599C13.4256 9.48399 13.4099 10.0975 13.8164 10.1095C14.8049 10.1605 15.2849 10.66 15.3479 11.6875C15.3492 11.7655 15.3811 11.8398 15.4366 11.8947C15.4921 11.9495 15.5669 11.9804 15.6449 11.9807H15.6569C15.697 11.979 15.7363 11.9693 15.7726 11.9522C15.809 11.9351 15.8415 11.911 15.8684 11.8812C15.8953 11.8514 15.9159 11.8165 15.9292 11.7786C15.9425 11.7407 15.948 11.7006 15.9456 11.6605C15.8751 10.321 15.1446 9.56649 13.8479 9.49674H13.8359V9.49599Z" fill="white"/>
</svg>
