<svg width="23" height="24" viewBox="0 0 23 24" fill="none" xmlns="http://www.w3.org/2000/svg">
<path d="M10.7897 0.00349227C8.86372 0.0267423 4.72297 0.343242 2.40697 2.46799C0.684218 4.17499 0.0827178 6.69874 0.0122178 9.81949C-0.0462822 12.929 -0.116782 18.7685 5.51197 20.3585V22.7802C5.51197 22.7802 5.47672 23.7492 6.11722 23.948C6.90622 24.1977 7.35547 23.4522 8.10547 22.6512L9.50422 21.0695C13.3555 21.3897 16.3052 20.6517 16.645 20.5422C17.4265 20.2925 21.8282 19.73 22.5475 13.8897C23.2855 7.85824 22.1882 4.05799 20.2075 2.33899H20.1955C19.5977 1.78849 17.1955 0.0379923 11.8285 0.0184923C11.8285 0.0184923 11.4302 -0.00850773 10.7897 0.00274227V0.00349227ZM10.8557 1.69924C11.4025 1.69549 11.7347 1.71874 11.7347 1.71874C16.2775 1.73074 18.4457 3.09799 18.9572 3.55849C20.6252 4.98799 21.4847 8.41399 20.8555 13.4495C20.2577 18.332 16.6877 18.641 16.027 18.8517C15.7457 18.9417 13.1477 19.5822 9.87472 19.3715C9.87472 19.3715 7.43722 22.313 6.67522 23.0705C6.55447 23.2032 6.41347 23.2422 6.32347 23.2227C6.19447 23.1912 6.15547 23.0315 6.16297 22.8125L6.18622 18.7932C1.41247 17.4732 1.69372 12.4925 1.74472 9.89074C1.80322 7.28899 2.29147 5.16049 3.74497 3.71899C5.70172 1.94974 9.21772 1.71124 10.8542 1.69924H10.8557ZM11.2157 4.30024C11.1764 4.29985 11.1374 4.30723 11.101 4.32197C11.0646 4.33671 11.0315 4.35851 11.0035 4.38612C10.9755 4.41373 10.9533 4.4466 10.9381 4.48283C10.9229 4.51907 10.9151 4.55795 10.915 4.59724C10.915 4.76524 11.0515 4.89799 11.2157 4.89799C11.9593 4.88385 12.6984 5.01707 13.3903 5.28996C14.0822 5.56286 14.7132 5.97003 15.247 6.48799C16.3367 7.54624 16.8677 8.96824 16.888 10.8275C16.888 10.9917 17.0207 11.1282 17.1887 11.1282V11.1162C17.2679 11.1164 17.3439 11.0853 17.4003 11.0297C17.4566 10.9741 17.4887 10.8984 17.4895 10.8192C17.5259 9.9441 17.384 9.0707 17.0723 8.25212C16.7607 7.43353 16.2859 6.68686 15.6767 6.05749C14.4895 4.89724 12.985 4.29949 11.2157 4.29949V4.30024ZM7.26247 4.98799C7.05018 4.95697 6.83367 4.99959 6.64897 5.10874H6.63322C6.20441 5.3601 5.81813 5.67778 5.48872 6.04999C5.21497 6.36649 5.06647 6.68674 5.02747 6.99499C5.00422 7.17874 5.01997 7.36249 5.07472 7.53799L5.09422 7.54999C5.40247 8.45599 5.80522 9.32749 6.29722 10.148C6.93098 11.3007 7.71093 12.3668 8.61772 13.3197L8.64472 13.3587L8.68747 13.3902L8.71447 13.4217L8.74597 13.4487C9.70239 14.3582 10.771 15.1418 11.926 15.7805C13.246 16.499 14.047 16.8387 14.5277 16.9797V16.9872C14.6687 17.03 14.797 17.0495 14.926 17.0495C15.3357 17.0195 15.7236 16.8531 16.0277 16.577C16.3982 16.2475 16.7124 15.8596 16.9577 15.4287V15.4212C17.188 14.9877 17.11 14.5775 16.7777 14.3C16.1123 13.7184 15.3928 13.2018 14.629 12.7572C14.1175 12.4797 13.5977 12.6477 13.387 12.929L12.9377 13.4952C12.7075 13.7765 12.289 13.7375 12.289 13.7375L12.277 13.745C9.15622 12.9477 8.32372 9.78799 8.32372 9.78799C8.32372 9.78799 8.28472 9.35824 8.57347 9.13924L9.13597 8.68624C9.40522 8.46724 9.59272 7.94824 9.30397 7.43599C8.86252 6.67111 8.34705 5.95141 7.76497 5.28724C7.63772 5.13066 7.45919 5.02413 7.26097 4.98649L7.26247 4.98799ZM11.7347 5.87899C11.3365 5.87899 11.3365 6.48049 11.7385 6.48049C12.2337 6.48853 12.7225 6.59407 13.1769 6.79109C13.6313 6.98812 14.0424 7.27275 14.3867 7.62874C14.7008 7.97525 14.9422 8.38128 15.0966 8.82277C15.2509 9.26427 15.315 9.73225 15.2852 10.199C15.2866 10.278 15.3188 10.3533 15.375 10.4088C15.4313 10.4643 15.507 10.4956 15.586 10.496L15.598 10.5117C15.6775 10.5112 15.7537 10.4793 15.81 10.423C15.8663 10.3667 15.8981 10.2906 15.8987 10.211C15.9257 9.01924 15.5552 8.01949 14.8285 7.21849C14.098 6.41749 13.0787 5.96824 11.7775 5.87899H11.7347V5.87899ZM12.2275 7.49599C11.8172 7.48399 11.8015 8.09749 12.208 8.10949C13.1965 8.16049 13.6765 8.65999 13.7395 9.68749C13.7408 9.76549 13.7727 9.83985 13.8282 9.89465C13.8837 9.94946 13.9585 9.98036 14.0365 9.98074H14.0485C14.0886 9.97902 14.1279 9.96933 14.1643 9.95224C14.2006 9.93514 14.2331 9.91098 14.26 9.88117C14.2869 9.85136 14.3076 9.81649 14.3208 9.7786C14.3341 9.74071 14.3396 9.70056 14.3372 9.66049C14.2667 8.32099 13.5362 7.56649 12.2395 7.49674H12.2275V7.49599Z" fill="white"/>
</svg>
